<svg width="46" height="41" viewBox="0 0 46 41" fill="none" xmlns="http://www.w3.org/2000/svg">
<g filter="url(#filter0_d_5:632)">
<path d="M23 10C24.4697 10 25.8793 10.5849 26.9186 11.6261C27.9578 12.6672 28.5417 14.0793 28.5417 15.5517C28.5417 17.0241 27.9578 18.4362 26.9186 19.4774C25.8793 20.5185 24.4697 21.1034 23 21.1034C21.5303 21.1034 20.1207 20.5185 19.0815 19.4774C18.0422 18.4362 17.4583 17.0241 17.4583 15.5517C17.4583 14.0793 18.0422 12.6672 19.0815 11.6261C20.1207 10.5849 21.5303 10 23 10V10ZM11.9167 13.9655C12.8033 13.9655 13.6267 14.2034 14.3392 14.6317C14.1017 16.9 14.7667 19.1524 16.1283 20.9131C15.3367 22.4359 13.7533 23.4828 11.9167 23.4828C10.6569 23.4828 9.44871 22.9814 8.55791 22.089C7.66711 21.1966 7.16667 19.9862 7.16667 18.7241C7.16667 17.4621 7.66711 16.2517 8.55791 15.3593C9.44871 14.4669 10.6569 13.9655 11.9167 13.9655V13.9655ZM34.0833 13.9655C35.3431 13.9655 36.5513 14.4669 37.4421 15.3593C38.3329 16.2517 38.8333 17.4621 38.8333 18.7241C38.8333 19.9862 38.3329 21.1966 37.4421 22.089C36.5513 22.9814 35.3431 23.4828 34.0833 23.4828C32.2467 23.4828 30.6633 22.4359 29.8717 20.9131C31.2521 19.1277 31.8929 16.8781 31.6608 14.6317C32.3733 14.2034 33.1967 13.9655 34.0833 13.9655V13.9655ZM12.7083 30.2241C12.7083 26.9407 17.3158 24.2759 23 24.2759C28.6842 24.2759 33.2917 26.9407 33.2917 30.2241V33H12.7083V30.2241ZM4 33V30.6207C4 28.4159 6.9925 26.56 11.0458 26.0207C10.1117 27.0993 9.54167 28.5903 9.54167 30.2241V33H4ZM42 33H36.4583V30.2241C36.4583 28.5903 35.8883 27.0993 34.9542 26.0207C39.0075 26.56 42 28.4159 42 30.6207V33Z" fill="#576170" fill-opacity="0.24"/>
<path d="M23 10C24.4697 10 25.8793 10.5849 26.9185 11.6261C27.9578 12.6672 28.5417 14.0793 28.5417 15.5517C28.5417 17.0241 27.9578 18.4362 26.9185 19.4774C25.8793 20.5185 24.4697 21.1034 23 21.1034C21.5303 21.1034 20.1207 20.5185 19.0814 19.4774C18.0422 18.4362 17.4583 17.0241 17.4583 15.5517C17.4583 14.0793 18.0422 12.6672 19.0814 11.6261C20.1207 10.5849 21.5303 10 23 10ZM12.7083 30.2241C12.7083 26.9407 17.3158 24.2759 23 24.2759C28.6842 24.2759 33.2917 26.9407 33.2917 30.2241V33H12.7083V30.2241Z" fill="#576170" fill-opacity="0.45"/>
</g>
<defs>
<filter id="filter0_d_5:632" x="-1" y="0" width="48" height="48" filterUnits="userSpaceOnUse" color-interpolation-filters="sRGB">
<feFlood flood-opacity="0" result="BackgroundImageFix"/>
<feColorMatrix in="SourceAlpha" type="matrix" values="0 0 0 0 0 0 0 0 0 0 0 0 0 0 0 0 0 0 127 0" result="hardAlpha"/>
<feOffset dy="4"/>
<feGaussianBlur stdDeviation="2"/>
<feComposite in2="hardAlpha" operator="out"/>
<feColorMatrix type="matrix" values="0 0 0 0 0 0 0 0 0 0 0 0 0 0 0 0 0 0 0.25 0"/>
<feBlend mode="normal" in2="BackgroundImageFix" result="effect1_dropShadow_5:632"/>
<feBlend mode="normal" in="SourceGraphic" in2="effect1_dropShadow_5:632" result="shape"/>
</filter>
</defs>
</svg>
