<svg width="40" height="40" viewBox="0 0 40 40" fill="none" xmlns="http://www.w3.org/2000/svg">
<path d="M19.145 16.5104C19.205 16.6753 19.25 16.8253 19.25 17.0052V24.833C19.25 25.5827 18.965 26.3025 18.455 26.8574L14.27 31.431L9.17 26.3325L11 24.5031L15.2 6.29835C15.2916 5.89782 15.5276 5.54506 15.8629 5.30752C16.1982 5.06997 16.6093 4.9643 17.0177 5.01069C17.426 5.05708 17.8029 5.25228 18.0764 5.55898C18.3499 5.86569 18.5007 6.26238 18.5 6.67324V14.1111C18.2552 14.0458 18.0033 14.0105 17.75 14.0061C16.1 14.0061 14.75 15.3557 14.75 17.0052V21.5039C14.75 21.9238 15.08 22.2537 15.5 22.2537C15.92 22.2537 16.25 21.9238 16.25 21.5039V17.0052C16.25 16.1805 16.925 15.5057 17.75 15.5057C18.035 15.5057 18.275 15.6106 18.5 15.7456C18.68 15.8506 18.815 15.9855 18.95 16.1355C18.995 16.1955 19.04 16.2555 19.07 16.3304C19.1 16.3904 19.13 16.4504 19.145 16.5104ZM5 30.5013L11 35L12.755 33.0956L7.58 27.9221L5 30.5013ZM29 24.5031L24.8 6.29835C24.7084 5.89782 24.4724 5.54506 24.1371 5.30752C23.8018 5.06997 23.3907 4.9643 22.9823 5.01069C22.574 5.05708 22.1971 5.25228 21.9236 5.55898C21.6501 5.86569 21.4993 6.26238 21.5 6.67324V14.1111C21.74 14.0511 21.995 14.0061 22.25 14.0061C23.9 14.0061 25.25 15.3557 25.25 17.0052V21.5039C25.25 21.9238 24.92 22.2537 24.5 22.2537C24.08 22.2537 23.75 21.9238 23.75 21.5039V17.0052C23.75 16.1805 23.075 15.5057 22.25 15.5057C21.965 15.5057 21.725 15.6106 21.5 15.7456C21.32 15.8506 21.185 15.9855 21.065 16.1355C21.02 16.1955 20.96 16.2555 20.93 16.3304C20.9 16.3904 20.87 16.4504 20.855 16.5104C20.795 16.6753 20.75 16.8253 20.75 17.0052V24.833C20.75 25.5827 21.035 26.3025 21.545 26.8574L25.73 31.431L30.83 26.3325L29 24.5031ZM32.42 27.9221L27.245 33.0956L29 35L35 30.5013L32.42 27.9221Z" fill="#576170" fill-opacity="0.24"/>
<path d="M19.145 16.5104C19.205 16.6753 19.25 16.8253 19.25 17.0052V24.833C19.25 25.5827 18.965 26.3025 18.455 26.8574L14.27 31.431L9.17 26.3325L11 24.5031L15.2 6.29835C15.2916 5.89782 15.5276 5.54506 15.8629 5.30752C16.1982 5.06997 16.6093 4.9643 17.0177 5.01069C17.426 5.05708 17.8029 5.25228 18.0764 5.55898C18.3499 5.86569 18.5007 6.26238 18.5 6.67324V14.1111C18.2552 14.0458 18.0033 14.0105 17.75 14.0061C16.1 14.0061 14.75 15.3557 14.75 17.0052V21.5039C14.75 21.9238 15.08 22.2537 15.5 22.2537C15.92 22.2537 16.25 21.9238 16.25 21.5039V17.0052C16.25 16.1805 16.925 15.5057 17.75 15.5057C18.035 15.5057 18.275 15.6106 18.5 15.7456C18.68 15.8506 18.815 15.9855 18.95 16.1355C18.995 16.1955 19.04 16.2555 19.07 16.3304C19.1 16.3904 19.13 16.4504 19.145 16.5104ZM29 24.5031L24.8 6.29835C24.7084 5.89782 24.4724 5.54506 24.1371 5.30752C23.8018 5.06997 23.3907 4.9643 22.9823 5.01069C22.574 5.05708 22.1971 5.25228 21.9236 5.55898C21.6501 5.86569 21.4993 6.26238 21.5 6.67324V14.1111C21.74 14.0511 21.995 14.0061 22.25 14.0061C23.9 14.0061 25.25 15.3557 25.25 17.0052V21.5039C25.25 21.9238 24.92 22.2537 24.5 22.2537C24.08 22.2537 23.75 21.9238 23.75 21.5039V17.0052C23.75 16.1805 23.075 15.5057 22.25 15.5057C21.965 15.5057 21.725 15.6106 21.5 15.7456C21.32 15.8506 21.185 15.9855 21.065 16.1355C21.02 16.1955 20.96 16.2555 20.93 16.3304C20.9 16.3904 20.87 16.4504 20.855 16.5104C20.795 16.6753 20.75 16.8253 20.75 17.0052V24.833C20.75 25.5827 21.035 26.3025 21.545 26.8574L25.73 31.431L30.83 26.3325L29 24.5031Z" fill="#576170" fill-opacity="0.45"/>
</svg>
