<svg width="28" height="26" viewBox="0 0 28 26" fill="none" xmlns="http://www.w3.org/2000/svg">
<path d="M26.5263 21.6667V23.1111C26.5263 23.8773 26.2158 24.6121 25.6631 25.1539C25.1103 25.6956 24.3606 26 23.5789 26H2.94737C2.16568 26 1.416 25.6956 0.863264 25.1539C0.310525 24.6121 0 23.8773 0 23.1111V2.88889C0 2.12271 0.310525 1.38791 0.863264 0.846136C1.416 0.304364 2.16568 0 2.94737 0H23.5789C24.3606 0 25.1103 0.304364 25.6631 0.846136C26.2158 1.38791 26.5263 2.12271 26.5263 2.88889V4.33333H13.2632C12.4815 4.33333 11.7318 4.6377 11.1791 5.17947C10.6263 5.72124 10.3158 6.45604 10.3158 7.22222V18.7778C10.3158 19.544 10.6263 20.2788 11.1791 20.8205C11.7318 21.3623 12.4815 21.6667 13.2632 21.6667H26.5263ZM13.2632 18.7778H28V7.22222H13.2632V18.7778ZM19.1579 15.1667C18.5716 15.1667 18.0094 14.9384 17.5948 14.5321C17.1803 14.1257 16.9474 13.5746 16.9474 13C16.9474 12.4254 17.1803 11.8743 17.5948 11.4679C18.0094 11.0616 18.5716 10.8333 19.1579 10.8333C19.7442 10.8333 20.3064 11.0616 20.721 11.4679C21.1355 11.8743 21.3684 12.4254 21.3684 13C21.3684 13.5746 21.1355 14.1257 20.721 14.5321C20.3064 14.9384 19.7442 15.1667 19.1579 15.1667Z" fill="#576170" fill-opacity="0.24"/>
<path d="M26.5263 21.6667V23.1111C26.5263 23.8773 26.2158 24.6121 25.6631 25.1539C25.1103 25.6956 24.3606 26 23.5789 26H2.94737C2.16568 26 1.416 25.6956 0.863264 25.1539C0.310525 24.6121 0 23.8773 0 23.1111V2.88889C0 2.12271 0.310525 1.38791 0.863264 0.846136C1.416 0.304364 2.16568 0 2.94737 0H23.5789C24.3606 0 25.1103 0.304364 25.6631 0.846136C26.2158 1.38791 26.5263 2.12271 26.5263 2.88889V4.33333H13.2632C12.4815 4.33333 11.7318 4.6377 11.1791 5.17947C10.6263 5.72124 10.3158 6.45604 10.3158 7.22222V18.7778C10.3158 19.544 10.6263 20.2788 11.1791 20.8205C11.7318 21.3623 12.4815 21.6667 13.2632 21.6667H26.5263Z" fill="#576170" fill-opacity="0.45"/>
</svg>
